# xmcd
#
# Track frame offsets:
#  150
#  19280
#  39487
#  56190
#  71422
#  86907
#  102290
#  121512
#  141680
#  158267
#  175150
#  198102
#  219272
#  234580
#  258797
#  277142
#
# Disc length: 3978 seconds
#
# Revision: 0
# Processed by: cddbd v1.5.1PL2 Copyright (c) Steve Scherf et al.
# Submitted via: Collectorz.com_Music_Collector 6.10
#
DISCID=de0f8810
DTITLE=Feelings of Love - We love to love
DYEAR=1900
DGENRE=Pop
TTITLE0=Cock Robin - Just around the corner
TTITLE1=Bonnie Tyler - Total eclipse of the heart
TTITLE2=Gloria Estafan and Miami Sound Machine - Anything for you
TTITLE3=Harold Melvin and The Blue Notes - If you don't know me by now
TTITLE4=Clannad - Closer to your heart
TTITLE5=Miami Sound Machine - Words get in the way
TTITLE6=Gino Vannelli - Living inside myself
TTITLE7=Dolly Parton - The river unbroken
TTITLE8=Blue System - Madonna blue
TTITLE9=P.M. Sampson and Double Key - We love to love
TTITLE10=John Farnham - You're the voice
TTITLE11=Belinda Carlisle - Vision of you
TTITLE12=The Flying Pickets - Only you
TTITLE13=Spandau Ballet - How many lies
TTITLE14=Europe - Open your heart
TTITLE15=Santana - Love you much to much
EXTD=
EXTT0=
EXTT1=
EXTT2=
EXTT3=
EXTT4=
EXTT5=
EXTT6=
EXTT7=
EXTT8=
EXTT9=
EXTT10=
EXTT11=
EXTT12=
EXTT13=
EXTT14=
EXTT15=
PLAYORDER=
